<?xml version="1.0" encoding="UTF-8" standalone="no"?>
<!DOCTYPE svg PUBLIC "-//W3C//DTD SVG 20010904//EN"
              "http://www.w3.org/TR/2001/REC-SVG-20010904/DTD/svg10.dtd">

<svg xmlns="http://www.w3.org/2000/svg"
     width="2.45333in" height="3.26667in"
     viewBox="0 0 736 980">
  <path id="Sélection"
        fill="#454545" stroke="none" stroke-width="1"
        d="M 274.00,0.21
           C 274.00,0.21 325.00,0.21 325.00,0.21
             325.00,0.21 335.00,0.91 335.00,0.91
             360.03,2.63 379.18,6.73 403.00,14.67
             445.96,28.99 478.28,47.48 512.00,77.83
             547.42,109.71 570.15,142.43 588.85,186.00
             600.77,213.77 609.02,242.83 611.09,273.00
             611.09,273.00 612.00,285.00 612.00,285.00
             612.03,305.79 613.19,327.37 610.72,348.00
             608.51,366.36 601.88,389.36 596.00,407.00
             591.25,421.23 585.14,444.42 566.00,442.81
             551.55,441.60 546.01,430.09 548.14,417.00
             548.14,417.00 560.57,380.00 560.57,380.00
             565.23,363.68 568.22,346.89 569.96,330.00
             569.96,330.00 569.96,321.00 569.96,321.00
             569.96,321.00 571.00,309.00 571.00,309.00
             571.08,260.03 558.17,211.01 532.80,169.00
             492.35,102.02 421.41,54.80 344.00,43.73
             344.00,43.73 316.00,41.00 316.00,41.00
             270.21,40.47 226.98,49.25 186.00,70.26
             115.04,106.63 64.57,173.35 47.42,251.00
             41.64,277.17 41.70,293.63 42.00,320.00
             42.28,343.56 51.72,381.01 60.45,403.00
             78.37,448.16 109.43,487.71 148.00,517.12
             157.34,524.24 170.69,533.09 181.00,538.69
             187.37,542.15 200.10,548.47 204.89,553.18
             214.40,562.53 210.42,580.99 198.00,585.85
             189.01,589.37 178.08,585.23 170.00,581.24
             152.53,572.63 132.41,559.57 117.00,547.65
             57.68,501.74 14.74,429.31 3.27,355.00
             3.27,355.00 0.91,330.00 0.91,330.00
             0.91,330.00 0.00,318.00 0.00,318.00
             -0.06,276.35 1.47,251.28 14.34,211.00
             40.96,127.73 100.87,62.64 180.00,26.31
             212.17,11.54 239.32,5.37 274.00,0.21 Z
           M 305.00,121.84
           C 305.00,121.84 319.00,121.84 319.00,121.84
             329.62,122.13 344.64,125.38 355.00,128.12
             413.61,143.57 461.29,188.75 480.92,246.00
             490.09,272.74 490.32,291.41 490.00,319.00
             489.80,335.97 481.31,370.57 472.65,385.00
             464.51,398.55 446.06,397.22 438.56,387.91
             435.03,383.54 434.89,379.33 435.01,374.00
             435.21,365.60 438.87,357.91 441.28,350.00
             444.49,339.45 448.87,318.80 449.00,308.00
             449.13,296.28 448.07,290.41 445.80,279.00
             435.46,227.07 399.05,186.96 349.00,170.33
             338.61,166.88 320.84,163.13 310.00,163.00
             247.14,162.27 191.49,202.48 171.67,262.00
             166.94,276.20 163.83,292.00 164.00,307.00
             164.23,326.21 170.31,349.59 178.31,367.00
             187.88,387.86 206.71,407.91 225.00,421.52
             232.63,427.20 249.30,435.69 254.21,442.09
             262.52,452.91 257.16,469.41 244.00,473.21
             235.47,475.68 228.51,473.05 221.00,469.24
             210.46,463.90 197.00,454.52 188.00,446.87
             156.61,420.20 133.62,383.64 125.45,343.00
             122.72,329.45 122.84,308.15 123.00,294.00
             123.00,294.00 123.83,285.00 123.83,285.00
             125.67,265.77 127.51,256.17 134.80,238.00
             154.01,190.12 189.96,153.66 238.00,134.45
             253.14,128.39 276.74,122.08 293.00,121.84
             293.00,121.84 305.00,121.84 305.00,121.84 Z
           M 588.00,735.00
           C 588.00,735.00 608.14,772.00 608.14,772.00
             608.14,772.00 636.31,823.00 636.31,823.00
             636.31,823.00 653.25,854.00 653.25,854.00
             653.25,854.00 668.75,884.00 668.75,884.00
             670.88,888.25 674.64,895.25 674.52,900.00
             674.25,910.01 665.53,914.26 658.00,918.58
             658.00,918.58 646.00,925.24 646.00,925.24
             646.00,925.24 557.00,970.22 557.00,970.22
             548.21,974.37 531.21,983.94 522.01,978.11
             518.04,975.59 514.30,969.93 511.67,966.00
             511.67,966.00 496.15,940.00 496.15,940.00
             496.15,940.00 446.30,851.00 446.30,851.00
             446.30,851.00 430.58,823.00 430.58,823.00
             429.20,820.59 425.30,813.14 423.24,811.91
             420.39,810.21 415.31,814.43 413.00,816.02
             413.00,816.02 385.00,837.21 385.00,837.21
             364.39,853.38 343.85,870.55 322.00,885.00
             313.29,890.76 307.25,894.27 297.00,889.84
             295.03,888.99 292.96,888.14 291.42,886.59
             287.67,882.81 287.32,874.11 286.92,869.00
             286.92,869.00 286.00,847.00 286.00,847.00
             286.00,847.00 285.00,830.00 285.00,830.00
             285.00,830.00 285.00,347.00 285.00,347.00
             285.00,347.00 286.00,332.00 286.00,332.00
             286.00,332.00 286.00,321.00 286.00,321.00
             286.01,315.22 287.17,297.73 289.57,293.04
             293.49,285.37 306.71,282.62 314.00,286.44
             318.52,288.81 324.04,295.23 328.00,298.91
             328.00,298.91 352.00,322.00 352.00,322.00
             352.00,322.00 371.00,340.96 371.00,340.96
             371.00,340.96 381.00,350.01 381.00,350.01
             381.00,350.01 422.00,391.00 422.00,391.00
             422.00,391.00 469.00,437.99 469.00,437.99
             469.00,437.99 481.00,449.00 481.00,449.00
             481.00,449.00 652.00,620.00 652.00,620.00
             652.00,620.00 669.04,638.00 669.04,638.00
             669.04,638.00 701.00,670.00 701.00,670.00
             701.00,670.00 732.35,703.00 732.35,703.00
             741.83,716.57 729.86,731.87 723.00,734.40
             721.07,735.11 718.09,735.00 716.00,735.00
             716.00,735.00 588.00,735.00 588.00,735.00 Z
           M 329.00,359.00
           C 329.00,359.00 328.00,373.00 328.00,373.00
             328.00,373.00 328.00,401.00 328.00,401.00
             328.00,401.00 328.00,496.00 328.00,496.00
             328.00,496.00 328.00,707.00 328.00,707.00
             328.00,707.00 328.00,779.00 328.00,779.00
             328.00,779.00 329.00,794.00 329.00,794.00
             329.00,794.00 330.00,826.00 330.00,826.00
             337.48,821.70 345.93,814.12 353.00,808.65
             353.00,808.65 397.00,774.42 397.00,774.42
             404.70,768.43 418.26,755.70 428.00,755.46
             438.96,755.19 444.09,762.69 449.19,771.00
             449.19,771.00 463.85,796.00 463.85,796.00
             463.85,796.00 510.30,879.00 510.30,879.00
             510.30,879.00 539.00,931.00 539.00,931.00
             539.00,931.00 567.00,918.25 567.00,918.25
             567.00,918.25 603.00,900.00 603.00,900.00
             603.00,900.00 617.00,892.19 617.00,892.19
             618.93,890.95 621.62,889.40 622.01,886.91
             622.42,884.31 618.57,878.51 617.25,876.00
             617.25,876.00 602.42,849.00 602.42,849.00
             602.42,849.00 550.00,754.00 550.00,754.00
             550.00,754.00 536.86,730.00 536.86,730.00
             534.11,725.04 530.62,718.82 531.20,713.00
             532.78,697.01 545.87,695.02 559.00,695.00
             559.00,695.00 575.00,695.00 575.00,695.00
             575.00,695.00 591.00,694.00 591.00,694.00
             591.00,694.00 634.00,694.00 634.00,694.00
             634.00,694.00 646.00,693.04 646.00,693.04
             646.00,693.04 663.00,693.04 663.00,693.04
             663.00,693.04 626.00,655.00 626.00,655.00
             626.00,655.00 555.00,584.00 555.00,584.00
             555.00,584.00 329.00,359.00 329.00,359.00 Z" />
</svg>
