<?xml version="1.0" encoding="UTF-8" standalone="no"?>
<!DOCTYPE svg PUBLIC "-//W3C//DTD SVG 20010904//EN"
              "http://www.w3.org/TR/2001/REC-SVG-20010904/DTD/svg10.dtd">

<svg xmlns="http://www.w3.org/2000/svg"
     width="7.73611in" height="10.3889in"
     viewBox="0 0 557 748">
  <path id="Sélection"
        fill="none" stroke="black" stroke-width="1"
        d="M 255.00,1.21
           C 255.00,1.21 297.00,1.21 297.00,1.21
             314.59,1.21 340.93,6.71 358.00,11.58
             452.19,38.45 525.20,115.28 548.87,210.00
             552.58,224.84 555.02,239.76 556.09,255.00
             556.09,255.00 557.00,265.00 557.00,265.00
             557.00,265.00 557.00,290.00 557.00,290.00
             557.00,290.00 556.09,302.00 556.09,302.00
             554.03,330.14 547.02,357.82 536.55,384.00
             530.41,399.36 521.81,415.04 512.95,429.00
             512.95,429.00 503.46,443.00 503.46,443.00
             503.46,443.00 423.00,567.00 423.00,567.00
             423.00,567.00 365.66,655.00 365.66,655.00
             365.66,655.00 336.05,700.00 336.05,700.00
             336.05,700.00 323.67,719.00 323.67,719.00
             314.64,732.54 308.68,742.06 292.00,746.96
             287.16,748.38 281.09,748.06 276.00,748.00
             249.30,747.68 237.47,721.21 224.67,702.00
             224.67,702.00 128.00,554.00 128.00,554.00
             128.00,554.00 65.95,459.00 65.95,459.00
             65.95,459.00 35.31,412.00 35.31,412.00
             18.72,381.40 7.49,347.60 3.28,313.00
             3.28,313.00 1.91,293.00 1.91,293.00
             1.91,293.00 1.00,283.00 1.00,283.00
             1.00,283.00 1.00,275.00 1.00,275.00
             1.00,275.00 1.96,262.00 1.96,262.00
             6.15,165.95 62.63,78.94 147.00,33.31
             170.33,20.69 199.87,10.14 226.00,5.42
             226.00,5.42 255.00,1.21 255.00,1.21 Z
           M 272.00,116.28
           C 272.00,116.28 261.00,117.28 261.00,117.28
             251.77,118.39 242.88,120.26 234.00,123.02
             194.67,135.25 160.78,162.98 142.27,200.00
             113.10,258.34 124.10,331.98 171.01,377.96
             187.49,394.11 208.13,406.71 230.00,414.00
             242.22,418.08 260.15,421.85 273.00,422.00
             302.42,422.34 323.57,417.97 350.00,404.75
             366.19,396.65 378.38,386.92 390.99,374.00
             401.66,363.06 412.96,346.10 419.00,332.00
             448.98,262.03 427.19,183.33 363.00,141.00
             350.35,132.66 337.57,126.74 323.00,122.58
             308.73,118.51 286.71,114.92 272.00,116.28 Z" />
</svg>
