<?xml version="1.0" encoding="UTF-8" standalone="no"?>
<!DOCTYPE svg PUBLIC "-//W3C//DTD SVG 20010904//EN"
              "http://www.w3.org/TR/2001/REC-SVG-20010904/DTD/svg10.dtd">

<svg xmlns="http://www.w3.org/2000/svg"
     width="3.33333in" height="3.33333in"
     viewBox="0 0 1000 1000">
  <path id="Sélection"
        fill="#454545" stroke="none" stroke-width="0"
        d="M 673.00,969.00
           C 673.00,969.00 656.00,974.67 656.00,974.67
             656.00,974.67 633.00,981.58 633.00,981.58
             601.27,990.40 568.81,995.83 536.00,998.09
             536.00,998.09 526.00,999.00 526.00,999.00
             526.00,999.00 512.00,999.00 512.00,999.00
             512.00,999.00 500.00,999.97 500.00,999.97
             500.00,999.97 491.00,999.04 491.00,999.04
             491.00,999.04 476.00,999.04 476.00,999.04
             476.00,999.04 464.00,998.09 464.00,998.09
             464.00,998.09 416.00,992.41 416.00,992.41
             359.29,982.90 302.92,962.98 253.00,934.42
             206.73,907.95 164.93,874.53 129.17,835.00
             63.21,762.08 18.44,667.60 5.28,570.00
             2.77,551.38 1.03,532.79 1.00,514.00
             1.00,514.00 0.03,500.00 0.03,500.00
             0.03,500.00 0.98,490.00 0.98,490.00
             0.98,490.00 0.98,474.00 0.98,474.00
             0.98,474.00 1.91,464.00 1.91,464.00
             1.91,464.00 7.59,416.00 7.59,416.00
             19.14,347.14 45.45,281.19 84.00,223.00
             157.25,112.45 272.41,36.41 402.00,10.00
             420.35,6.26 457.76,1.03 476.00,1.00
             476.00,1.00 488.00,1.00 488.00,1.00
             488.00,1.00 500.00,0.03 500.00,0.03
             500.00,0.03 510.00,0.98 510.00,0.98
             510.00,0.98 526.00,0.98 526.00,0.98
             526.00,0.98 536.00,1.91 536.00,1.91
             567.61,4.08 598.32,9.39 629.00,17.37
             638.26,19.78 666.06,27.50 673.00,32.00
             607.79,58.08 556.05,89.13 505.00,137.96
             505.00,137.96 496.04,146.04 496.04,146.04
             496.04,146.04 487.96,155.00 487.96,155.00
             426.51,219.25 383.64,298.54 363.12,385.00
             356.77,411.74 352.79,438.62 350.91,466.00
             350.91,466.00 350.00,476.00 350.00,476.00
             350.00,476.00 350.00,522.00 350.00,522.00
             350.00,522.00 353.28,561.00 353.28,561.00
             362.76,637.06 389.20,708.59 430.69,773.00
             470.28,834.46 524.93,887.12 587.00,925.58
             603.31,935.68 622.49,946.34 640.00,954.14
             640.00,954.14 673.00,969.00 673.00,969.00 Z" />
</svg>
