<?xml version="1.0" encoding="UTF-8" standalone="no"?>
<!DOCTYPE svg PUBLIC "-//W3C//DTD SVG 20010904//EN"
              "http://www.w3.org/TR/2001/REC-SVG-20010904/DTD/svg10.dtd">

<svg xmlns="http://www.w3.org/2000/svg"
     width="7.22222in" height="7.22222in"
     viewBox="0 0 650 650">
  <path id="Sélection"
        fill="#454545" stroke="none" stroke-width="1"
        d="M 306.00,0.00
           C 306.00,0.00 343.00,0.00 343.00,0.00
             343.00,0.00 343.00,77.00 343.00,77.00
             366.68,77.00 396.05,84.82 418.00,93.60
             486.08,120.83 538.12,175.39 561.33,245.00
             567.40,263.19 573.00,286.82 573.00,306.00
             573.00,306.00 650.00,306.00 650.00,306.00
             650.00,306.00 650.00,343.00 650.00,343.00
             650.00,343.00 573.00,343.00 573.00,343.00
             573.00,366.04 564.95,396.62 556.40,418.00
             529.16,486.10 474.62,538.12 405.00,561.33
             386.47,567.51 363.55,573.00 344.00,573.00
             344.00,573.00 344.00,650.00 344.00,650.00
             344.00,650.00 307.00,650.00 307.00,650.00
             307.00,650.00 307.00,573.00 307.00,573.00
             283.96,573.00 253.38,564.95 232.00,556.40
             163.92,529.17 111.87,474.60 88.67,405.00
             82.60,386.81 77.00,363.18 77.00,344.00
             77.00,344.00 0.00,344.00 0.00,344.00
             0.00,344.00 0.00,307.00 0.00,307.00
             0.00,307.00 77.00,307.00 77.00,307.00
             77.00,283.49 84.89,253.78 93.60,232.00
             120.84,163.92 175.39,111.88 245.00,88.67
             263.19,82.60 286.82,77.00 306.00,77.00
             306.00,77.00 306.00,0.00 306.00,0.00 Z
           M 325.00,112.86
           C 325.00,112.86 315.00,112.86 315.00,112.86
             298.57,113.03 275.73,118.03 260.00,123.03
             218.45,136.25 180.92,164.25 154.89,199.00
             107.68,262.05 100.91,348.54 135.26,419.00
             146.04,441.12 160.67,459.70 178.00,477.00
             192.44,491.42 213.50,506.46 232.00,515.22
             258.49,527.77 287.62,535.67 317.00,536.00
             317.00,536.00 339.00,536.00 339.00,536.00
             351.14,535.85 371.17,531.80 383.00,528.42
             447.60,509.99 499.83,461.90 523.58,399.00
             530.43,380.83 536.97,353.38 537.00,334.00
             537.00,334.00 537.00,314.00 537.00,314.00
             536.98,299.61 532.99,279.91 529.00,266.00
             512.82,209.63 471.85,160.02 419.00,134.26
             397.02,123.54 362.49,113.04 338.00,112.86
             338.00,112.86 325.00,112.86 325.00,112.86 Z
           M 309.00,196.21
           C 309.00,196.21 333.00,196.21 333.00,196.21
             346.48,196.02 361.57,199.90 374.00,205.01
             389.98,211.58 404.56,220.90 416.83,233.17
             462.50,278.83 466.75,352.88 427.87,404.00
             416.47,418.98 402.46,430.53 386.00,439.56
             371.64,447.45 349.44,453.97 333.00,454.00
             333.00,454.00 315.00,454.00 315.00,454.00
             305.54,453.89 291.98,450.76 283.00,447.66
             243.22,433.89 213.49,403.21 201.02,363.00
             195.44,344.99 195.97,335.23 196.00,317.00
             196.02,303.52 199.90,288.43 205.01,276.00
             223.64,230.72 261.25,203.63 309.00,196.21 Z" />
</svg>
